<?xml version="1.0" encoding="UTF-8" standalone="no"?>
<!-- modified from https://upload.wikimedia.org/wikipedia/commons/b/b8/SporadicGroups.svg -->
<svg
 xmlns:dc="http://purl.org/dc/elements/1.1/"
 xmlns:cc="http://creativecommons.org/ns#"
 xmlns:svg="http://www.w3.org/2000/svg"
 xmlns="http://www.w3.org/2000/svg"
 xmlns:inkscape="http://www.inkscape.org/namespaces/inkscape"
 viewBox="10 40 680 520"
 width="670"
 height="560"
 version="1.1"
 id="svg2"
 inkscape:version="1.0.2-2 (e86c870879, 2021-01-15)" >
 <g
    inkscape:groupmode="layer"
    id="layer7"
    inkscape:label="arrows"
    style="fill:#000000;fill-rule:evenodd;stroke:#000000;stroke-width:1;stroke-linecap:butt;stroke-linejoin:miter;stroke-miterlimit:4;stroke-dasharray:none;stroke-opacity:1;display:inline">
<!-- all connectors -->
<!-- downward connectors (DELTAx == 0, top-down) -->
    <path
       d="M 050,450 V 550" />
    <path
       d="M 150,250 V 350" />
    <path
       d="M 150,150 V 250" />
    <path
       d="M 250,350 V 450" />
    <path
       d="M 350,050 V 150" />
    <path
       d="M 350,150 V 250" />
    <path
       d="M 350,250 V 450" />
    <path
       d="M 450,250 V 350" />
    <path
       d="M 450,350 V 450" />
    <path
       d="M 450,450 V 550" />
    <path
       d="M 550,150 V 250" />
    <path
       d="M 550,250 V 350" />
<!-- 2)oblique connectors: DELTAx != 0, DELTAy > 0 -->
<!-- (grouped by parallelism, top-down) -->
    <path
       d="m 050,250 100,200" />
    <path
       d="m 150,450 300,100" />
    <path
       d="m 150,350 300,200" />
    <path
       d="m 150,150 300,200" />
    <path
       d="m 150,250 300,200" />
    <path
       d="m 050,250 300,200" />
    <path
       d="m 350,150 200,100" />
    <path
       d="m 550,350 -200,100" />
    <path
       d="m 450,450 -200,100" />
    <path
       d="m 050,450 200,100" />
    <path
       d="m 150,450 100,100" />
    <path
       d="m 250,350 100,100" />
    <path
       d="m 050,350 100,100" />
    <path
       d="m 050,250 100,100" />
    <path
       d="m 150,150 -100,100" />
    <path
       d="m 150,350 100,200" />
    <path
       d="m 150,150 100,200" />
    <path
       d="m 550,150 -100,200" />
    <path
       d="m 550,250 -100,200" />
    <path
       d="m 550,350 -100,200" />
    <path
       d="m 350,150 -100,100" />
    <path
       d="m 450,350 -100,100" />
    <path
       d="m 350,450 -100,100" />
    <path
       d="m 550,150 100,100" />
    <path
       d="m 350,050 -200,100" />
    <path
       d="m 350,150 -200,100" />
    <path
       d="m 350,250 -200,100" />
    <path
       d="m 350,050 200,100" />
<!-- 3)connector pieces -->
    <path
       d="M 150,250 100,350" />
    <path
       d="M 050,250 273,332" />
 </g>
 <g
    inkscape:groupmode="layer"
    id="layer6"
    inkscape:label="ellipses"
    style="color:#000000;clip-rule:nonzero;display:inline;overflow:visible;visibility:visible;opacity:1;isolation:auto;mix-blend-mode:normal;color-interpolation:sRGB;color-interpolation-filters:linearRGB;solid-color:#000000;solid-opacity:1;vector-effect:none;fill-opacity:1;fill-rule:nonzero;stroke:#000000;stroke-width:1;stroke-linecap:butt;stroke-linejoin:miter;stroke-miterlimit:4;stroke-dasharray:none;stroke-dashoffset:0;stroke-opacity:1;color-rendering:auto;image-rendering:auto;shape-rendering:auto;text-rendering:auto;enable-background:accumulate;display:inline">
    <ellipse rx="24" ry="17"
       cx="050"
       cy="250"
       style="fill:#80ff80" />
    <ellipse rx="24" ry="17"
       cx="050"
       cy="350"
       style="fill:#ffffff" />
    <ellipse rx="24" ry="17"
       cx="050"
       cy="450"
       style="fill:#ffffff" />
    <ellipse rx="24" ry="17"
       cx="050"
       cy="550"
       style="fill:#ffffff" />
    <ellipse rx="24" ry="17"
       cx="150"
       cy="150"
       style="fill:#80ff80" />
    <ellipse rx="24" ry="17"
       cx="150"
       cy="250"
       style="fill:#80ff80" />
    <ellipse rx="24" ry="17"
       cx="150"
       cy="350"
       style="fill:#80ff80" />
    <ellipse rx="24" ry="17"
       cx="150"
       cy="450"
       style="fill:#80ff80" />
    <ellipse rx="24" ry="17"
       cx="250"
       cy="250"
       style="fill:#aaccff" />
    <ellipse rx="24" ry="17"
       cx="250"
       cy="350"
       style="fill:#80ff80" />
    <ellipse rx="24" ry="17"
       cx="250"
       cy="450"
       style="fill:#80ff80" />
    <ellipse rx="24" ry="17"
       cx="250"
       cy="550"
       style="fill:#ffaaaa" />
    <ellipse rx="24" ry="17"
       cx="350"
       cy="050"
       style="fill:#aaccff" />
    <ellipse rx="24" ry="17"
       cx="350"
       cy="150"
       style="fill:#aaccff" />
    <ellipse rx="24" ry="17"
       cx="350"
       cy="250"
       style="fill:#aaccff" />
    <ellipse rx="24" ry="17"
       cx="350"
       cy="450"
       style="fill:#ffaaaa" />
    <ellipse rx="24" ry="17"
       cx="450"
       cy="250"
       style="fill:#ffffff" />
    <ellipse rx="24" ry="17"
       cx="450"
       cy="350"
       style="fill:#ffaaaa" />
    <ellipse rx="24" ry="17"
       cx="450"
       cy="450"
       style="fill:#ffaaaa" />
    <ellipse rx="24" ry="17"
       cx="450"
       cy="550"
       style="fill:#ffaaaa" />
    <ellipse rx="24" ry="17"
       cx="550"
       cy="150"
       style="fill:#aaccff" />
    <ellipse rx="24" ry="17"
       cx="550"
       cy="250"
       style="fill:#aaccff" />
    <ellipse rx="24" ry="17"
       cx="550"
       cy="350"
       style="fill:#aaccff" />
    <ellipse rx="24" ry="17"
       cx="650"
       cy="250"
       style="fill:#aaccff" />
    <ellipse rx="24" ry="17"
       cx="650"
       cy="350"
       style="fill:#ffffff" />
    <ellipse rx="24" ry="17"
       cx="650"
       cy="550"
       style="fill:#ffffff" />
 </g>
<!-- font-size:18.6667px == 14 pt -->
 <g
    inkscape:groupmode="layer"
    id="layer3"
    inkscape:label="names"
    style="font-size:18.6667px;line-height:125%;font-family:'Liberation Sans';-inkscape-font-specification:'Liberation Sans';color:#000000;font-style:normal;font-weight:normal;font-stretch:normal;text-indent:0;text-decoration:none;text-decoration-line:none;text-decoration-style:solid;text-decoration-letter-spacing:normal;word-spacing:normal;text-transform:none;writing-mode:lr-tb;direction:ltr;baseline-shift:baseline;text-anchor:end;white-space:normal;clip-rule:nonzero;overflow:visible;visibility:visible;opacity:1;isolation:auto;mix-blend-mode:normal;color-interpolation:sRGB;color-interpolation-filters:linearRGB;solid-solid-vector-effect:none;fill:#000000;fill-fill-rule:nonzero;stroke:#000000;stroke-width:0.2;stroke-linecap:butt;stroke-linejoin:miter;stroke-miterlimit:4;stroke-dasharray:none;stroke-dashoffset:0;stroke-color-rendering:auto;image-rendering:auto;shape-rendering:auto;text-rendering:auto;enable-background:accumulate;text-align:center;text-anchor:middle;display:inline"
    transform="translate(2,7)">
    <text
       x="048" y="250">
       <tspan> U </tspan>
    </text>
    <text
       x="048" y="350">
       <tspan> R </tspan>
    </text>
    <text
       x="048" y="450">
       <tspan> I </tspan>
    </text>
    <text
       x="048" y="550">
       <tspan> N </tspan>
    </text>
    <text
       x="148" y="150">
       <tspan> R </tspan>
    </text>
    <text
       x="148" y="250">
       <tspan> O </tspan>
    </text>
    <text
       x="148" y="350">
       <tspan> S </tspan>
    </text>
    <text
       x="148" y="450">
       <tspan> T </tspan>
    </text>
    <text
       x="248" y="250">
       <tspan> U </tspan>
    </text>
    <text
       x="248" y="350">
       <tspan> S </tspan>
    </text>
    <text
       x="248" y="450">
       <tspan> P </tspan>
    </text>
    <text
       x="248" y="550">
       <tspan> V </tspan>
    </text>
    <text
       x="348" y="050">
       <tspan> Y </tspan>
    </text>
    <text
       x="348" y="150">
       <tspan> A </tspan>
    </text>
    <text
       x="348" y="250">
       <tspan> H </tspan>
    </text>
    <text
       x="348" y="450">
       <tspan> O </tspan>
    </text>
    <text
       x="448" y="250">
       <tspan> E </tspan>
    </text>
    <text
       x="448" y="350">
       <tspan> E </tspan>
    </text>
    <text
       x="448" y="450">
       <tspan> C </tspan>
    </text>
    <text
       x="448" y="550">
       <tspan> I </tspan>
    </text>
    <text
       x="548" y="150">
       <tspan> D </tspan>
    </text>
    <text
       x="548" y="250">
       <tspan> S </tspan>
    </text>
    <text
       x="548" y="350">
       <tspan> R </tspan>
    </text>
    <text
       x="648" y="250">
       <tspan> T </tspan>
    </text>
    <text
       x="648" y="350">
       <tspan> B </tspan>
    </text>
    <text
       x="648" y="550">
       <tspan> M </tspan>
    </text>
 </g>
</svg>
