<?xml version='1.0' standalone='no'?>
<!DOCTYPE svg PUBLIC '-//W3C//DTD SVG 20001102//EN'
	'http://www.w3.org/TR/2000/CR-SVG-20001102/DTD/svg-20001102.dtd'>
<svg
	xmlns='http://www.w3.org/2000/svg'
	xmlns:xlink="http://www.w3.org/1999/xlink"
	viewBox="0 -5.5 17 6"
>
	<title>winning ways.svg</title>
    <g transform="translate(0 0)" style="font-family: sans-serif;">
        <line x1="0" y1="0" x2="17" y2="0" stroke="black" stroke-width="0.1"/>
        <g transform="translate(1 0)">
            <line x1="0" y1="0" x2="0" y2="-5" stroke="green" stroke-width="0.1"/>
            <circle cx="0" cy="0" r="0.1" fill="green"/>
            <circle cx="0" cy="-1" r="0.1" fill="green"/>
            <circle cx="0" cy="-2" r="0.1" fill="green"/>
            <circle cx="0" cy="-3" r="0.1" fill="green"/>
            <circle cx="0" cy="-4" r="0.1" fill="green"/>
            <circle cx="0" cy="-5" r="0.1" fill="green"/>
            <text x="0" y="-4.5" style="font-size: 0.4px" text-anchor="middle" fill="red" stroke="none"><tspan dy="0.35em">B</tspan></text>
            <text x="0" y="-3.5" style="font-size: 0.4px" text-anchor="middle" fill="red" stroke="none"><tspan dy="0.35em">A</tspan></text>
            <text x="0" y="-2.5" style="font-size: 0.4px" text-anchor="middle" fill="red" stroke="none"><tspan dy="0.35em">T</tspan></text>
            <text x="0" y="-1.5" style="font-size: 0.4px" text-anchor="middle" fill="red" stroke="none"><tspan dy="0.35em">O</tspan></text>
            <text x="0" y="-0.5" style="font-size: 0.4px" text-anchor="middle" fill="red" stroke="none"><tspan dy="0.35em">N</tspan></text>
        </g>
        <g transform="translate(3 0)">
            <circle cx="0" cy="0" r="0.1" fill="green"/>
            <g transform="rotate(-20)">
                <line x1="0" y1="0" x2="0" y2="-2" stroke="green" stroke-width="0.1"/>
                <circle cx="0" cy="-1" r="0.1" fill="green"/>
                <circle cx="0" cy="-2" r="0.1" fill="green"/>
            </g>
            <g transform="rotate(0)">
                <line x1="0" y1="0" x2="0" y2="-4" stroke="green" stroke-width="0.1"/>
                <circle cx="0" cy="-1" r="0.1" fill="green"/>
                <circle cx="0" cy="-2" r="0.1" fill="green"/>
                <circle cx="0" cy="-3" r="0.1" fill="green"/>
                <circle cx="0" cy="-4" r="0.1" fill="green"/>
            </g>
            <g transform="rotate(20)">
                <line x1="0" y1="0" x2="0" y2="-1" stroke="green" stroke-width="0.1"/>
                <circle cx="0" cy="-1" r="0.1" fill="green"/>
            </g>
            <text x="-0.5" y="-1.4" style="font-size: 0.4px" text-anchor="middle" fill="red" stroke="none"><tspan dy="0.35em">T</tspan></text>
            <text x="-0.3" y="-0.5" style="font-size: 0.4px" text-anchor="middle" fill="red" stroke="none"><tspan dy="0.35em">H</tspan></text>
            <text x="0" y="-3.5" style="font-size: 0.4px" text-anchor="middle" fill="red" stroke="none"><tspan dy="0.35em">I</tspan></text>
            <text x="0" y="-2.5" style="font-size: 0.4px" text-anchor="middle" fill="red" stroke="none"><tspan dy="0.35em">C</tspan></text>
            <text x="0" y="-1.5" style="font-size: 0.4px" text-anchor="middle" fill="red" stroke="none"><tspan dy="0.35em">K</tspan></text>
            <text x="0" y="-0.5" style="font-size: 0.4px" text-anchor="middle" fill="red" stroke="none"><tspan dy="0.35em">E</tspan></text>
            <text x="0.3" y="-0.5" style="font-size: 0.4px" text-anchor="middle" fill="red" stroke="none"><tspan dy="0.35em">T</tspan></text>
        </g>
        <g transform="translate(5 0)">
            <line x1="0" y1="0" x2="0" y2="-1" stroke="green" stroke-width="0.1"/>
            <line x1="1" y1="0" x2="1" y2="-1" stroke="green" stroke-width="0.1"/>
            <line x1="0" y1="-1" x2="1" y2="-1" stroke="green" stroke-width="0.1"/>
            <line x1="1" y1="-1" x2="1" y2="-2" stroke="green" stroke-width="0.1"/>
            <line x1="1" y1="-2" x2="2" y2="-2" stroke="green" stroke-width="0.1"/>
            <line x1="0" y1="-1" x2="-0.8" y2="-0.4" stroke="green" stroke-width="0.1"/>
            <circle cx="0" cy="0" r="0.1" fill="green"/>
            <circle cx="1" cy="0" r="0.1" fill="green"/>
            <circle cx="0" cy="-1" r="0.1" fill="green"/>
            <circle cx="1" cy="-1" r="0.1" fill="green"/>
            <circle cx="1" cy="-2" r="0.1" fill="green"/>
            <circle cx="2" cy="-2" r="0.1" fill="green"/>
            <circle cx="-0.8" cy="-0.4" r="0.1" fill="green"/>
            <text x="-0.4" y="-0.7" style="font-size: 0.4px" text-anchor="middle" fill="red" stroke="none"><tspan dy="0.35em">A</tspan></text>
            <text x="0" y="-0.5" style="font-size: 0.4px" text-anchor="middle" fill="red" stroke="none"><tspan dy="0.35em">N</tspan></text>
            <text x="0.5" y="-1" style="font-size: 0.4px" text-anchor="middle" fill="red" stroke="none"><tspan dy="0.35em">I</tspan></text>
            <text x="1" y="-1.5" style="font-size: 0.4px" text-anchor="middle" fill="red" stroke="none"><tspan dy="0.35em">M</tspan></text>
            <text x="1" y="-0.5" style="font-size: 0.4px" text-anchor="middle" fill="red" stroke="none"><tspan dy="0.35em">A</tspan></text>
            <text x="1.5" y="-2" style="font-size: 0.4px" text-anchor="middle" fill="red" stroke="none"><tspan dy="0.35em">L</tspan></text>
        </g>
        <g transform="translate(8 0)">
            <line x1="0" y1="0" x2="0.5" y2="-0.85" stroke="green" stroke-width="0.1"/>
            <line x1="1" y1="0" x2="0.5" y2="-0.85" stroke="green" stroke-width="0.1"/>
            <line x1="0.5" y1="-0.85" x2="0.5" y2="-1.85" stroke="green" stroke-width="0.1"/>
            <circle cx="0" cy="0" r="0.1" fill="green"/>
            <circle cx="1" cy="0" r="0.1" fill="green"/>
            <circle cx="0.5" cy="-0.85" r="0.1" fill="green"/>
            <circle cx="0.5" cy="-1.85" r="0.1" fill="green"/>
            <text x="0.5" y="-1.35" style="font-size: 0.4px" text-anchor="middle" fill="red" stroke="none"><tspan dy="0.35em">B</tspan></text>
            <text x="0.25" y="-0.42" style="font-size: 0.4px" text-anchor="middle" fill="red" stroke="none"><tspan dy="0.35em">O</tspan></text>
            <text x="0.75" y="-0.42" style="font-size: 0.4px" text-anchor="middle" fill="red" stroke="none"><tspan dy="0.35em">Y</tspan></text>
        </g>
        <g transform="translate(11 0)">
            <line x1="0" y1="0" x2="0" y2="-1" stroke="green" stroke-width="0.1"/>
            <circle cx="0" cy="0" r="0.1" fill="green"/>
            <circle cx="0" cy="-1" r="0.1" fill="green"/>
            <g transform="rotate(-30 0 -1)">
                <line x1="0" y1="-1" x2="0" y2="-2" stroke="green" stroke-width="0.1"/>
                <circle cx="0" cy="-2" r="0.1" fill="green"/>
            </g>
            <g transform="rotate(0 0 -1)">
                <line x1="0" y1="-1" x2="0" y2="-2" stroke="green" stroke-width="0.1"/>
                <circle cx="0" cy="-2" r="0.1" fill="green"/>
            </g>
            <g transform="rotate(30 0 -1)">
                <line x1="0" y1="-1" x2="0" y2="-2" stroke="green" stroke-width="0.1"/>
                <circle cx="0" cy="-2" r="0.1" fill="green"/>
            </g>
            <text x="-0.4" y="-1.5" style="font-size: 0.4px" text-anchor="middle" fill="red" stroke="none"><tspan dy="0.35em">T</tspan></text>
            <text x="0" y="-1.5" style="font-size: 0.4px" text-anchor="middle" fill="red" stroke="none"><tspan dy="0.35em">R</tspan></text>
            <text x="0.4" y="-1.5" style="font-size: 0.4px" text-anchor="middle" fill="red" stroke="none"><tspan dy="0.35em">E</tspan></text>
            <text x="0" y="-0.5" style="font-size: 0.4px" text-anchor="middle" fill="red" stroke="none"><tspan dy="0.35em">E</tspan></text>
        </g>
        <g transform="translate(13 0)">
            <line x1="0" y1="0" x2="0.2" y2="-0.9" stroke="green" stroke-width="0.1"/>
            <line x1="0.2" y1="-0.9" x2="1" y2="-1.5" stroke="green" stroke-width="0.1"/>
            <line x1="1" y1="-1.5" x2="2" y2="-1.5" stroke="green" stroke-width="0.1"/>
            <line x1="2" y1="-1.5" x2="2.8" y2="-0.9" stroke="green" stroke-width="0.1"/>
            <line x1="2.8" y1="-0.9" x2="3" y2="0" stroke="green" stroke-width="0.1"/>
            <circle cx="0" cy="0" r="0.1" fill="green"/>
            <circle cx="0.2" cy="-0.9" r="0.1" fill="green"/>
            <circle cx="1" cy="-1.5" r="0.1" fill="green"/>
            <circle cx="2" cy="-1.5" r="0.1" fill="green"/>
            <circle cx="2.8" cy="-0.9" r="0.1" fill="green"/>
            <circle cx="3" cy="0" r="0.1" fill="green"/>
            <text x="0.1" y="-0.45" style="font-size: 0.4px" text-anchor="middle" fill="red" stroke="none"><tspan dy="0.35em">C</tspan></text>
            <text x="0.6" y="-1.2" style="font-size: 0.4px" text-anchor="middle" fill="red" stroke="none"><tspan dy="0.35em">U</tspan></text>
            <text x="1.5" y="-1.5" style="font-size: 0.4px" text-anchor="middle" fill="red" stroke="none"><tspan dy="0.35em">R</tspan></text>
            <text x="2.4" y="-1.2" style="font-size: 0.4px" text-anchor="middle" fill="red" stroke="none"><tspan dy="0.35em">V</tspan></text>
            <text x="2.9" y="-0.45" style="font-size: 0.4px" text-anchor="middle" fill="red" stroke="none"><tspan dy="0.35em">E</tspan></text>
        </g>
    </g>
</svg>